<?xml version="1.0" encoding="utf-8"?>
<!-- Generator: Adobe Illustrator 18.1.1, SVG Export Plug-In . SVG Version: 6.00 Build 0)  -->
<svg version="1.1" id="Layer_1" xmlns="http://www.w3.org/2000/svg" xmlns:xlink="http://www.w3.org/1999/xlink" x="0px" y="0px"
	 viewBox="-1011 757 24 24" enable-background="new -1011 757 24 24" xml:space="preserve">
<path fill="none" d="M-1011,757h24v24h-24V757z"/>
<path d="M-1003.6,775.2c0.4,0.5,1,0.8,1.6,0.8l11,0c1.1,0,2-0.9,2-2v-10c0-1.1-0.9-2-2-2l-11,0c-0.7,0-1.3,0.3-1.6,0.8l-4.4,6.2
	C-1008,769-1003.6,775.2-1003.6,775.2z"/>
<path fill="#FFFFFF" d="M-997.1,764.6c-2.4,0-4.4,2-4.4,4.4s2,4.4,4.4,4.4s4.4-2,4.4-4.4S-994.7,764.6-997.1,764.6z M-1000.6,769
	c0-1.9,1.6-3.5,3.5-3.5c0.8,0,1.5,0.3,2.1,0.7l-4.9,4.9C-1000.3,770.5-1000.6,769.8-1000.6,769z M-997.1,772.5
	c-0.8,0-1.5-0.3-2.1-0.7l4.9-4.9c0.5,0.6,0.7,1.3,0.7,2.1C-993.6,770.9-995.2,772.5-997.1,772.5z"/>
</svg>
